<svg id="Layer_1" data-name="Layer 1" xmlns="http://www.w3.org/2000/svg" viewBox="0 0 43.44 29.27"><defs><style>.cls-1{fill:#ffbc0d;}.cls-2{fill:#db0007;}</style></defs><title>friesMenu</title><path class="cls-1" d="M1146.15-256.4h16.41a5.35,5.35,0,0,1,5.35,5.34h-21.76Z" transform="translate(-1125.25 280.32)"/><path class="cls-1" d="M1125.26-280.32h15.27a5.35,5.35,0,0,1-5.35,5.34h-9.92Z" transform="translate(-1125.25 280.32)"/><path class="cls-1" d="M1148.36-280.32h20.34V-275H1143a5.34,5.34,0,0,1,5.35-5.34" transform="translate(-1125.25 280.32)"/><path class="cls-1" d="M1130.6-268.36h38.1V-263h-43.45a5.35,5.35,0,0,1,5.35-5.34" transform="translate(-1125.25 280.32)"/><path class="cls-1" d="M1125.4-256.4h28.3v5.34h-23a5.35,5.35,0,0,1-5.35-5.34" transform="translate(-1125.25 280.32)"/><path class="cls-2" d="M1157.65-253.7a4.25,4.25,0,0,0,3.58,2.65h6.68a.63.63,0,0,0,.65-.69,5.61,5.61,0,0,0-5.68-4.65h-7.47a6.35,6.35,0,0,1,2.24,2.69" transform="translate(-1125.25 280.32)"/></svg>