<svg id="Ebene_1" data-name="Ebene 1" xmlns="http://www.w3.org/2000/svg" viewBox="0 0 109.5 105"><defs><style>.cls-1{fill:#fff;}</style></defs><title>fb</title><path d="M1024,971.5c0-29-24.51-52.5-54.75-52.5s-54.75,23.51-54.75,52.5c0,26.2,20,47.92,46.2,51.86V986.68H946.79V971.5H960.7V959.93c0-13.15,8.17-20.42,20.68-20.42a88,88,0,0,1,12.25,1v12.92h-6.9c-6.8,0-8.93,4-8.93,8.2v9.85H993l-2.43,15.18H977.8v36.68C1004,1019.42,1024,997.7,1024,971.5Z" transform="translate(-914.5 -919)"/><path class="cls-1" d="M990.56,986.68,993,971.5H977.8v-9.85c0-4.15,2.13-8.2,8.93-8.2h6.9V940.53a88,88,0,0,0-12.25-1c-12.51,0-20.68,7.27-20.68,20.42V971.5H946.79v15.18H960.7v36.68a57.43,57.43,0,0,0,17.1,0V986.68Z" transform="translate(-914.5 -919)"/></svg>